HIERARCHY
ROOT joint_Root
{
	OFFSET 0.0 0.0 0.0
	CHANNELS 6 Xposition Yposition Zposition Zrotation Xrotation Yrotation 
	JOINT Hips
	{
		OFFSET 4.5925 91.4895 -427.239
		CHANNELS 6 Xposition Yposition Zposition Zrotation Xrotation Yrotation 
		JOINT Spine
		{
			OFFSET 15.7357 0.0 0.0
			CHANNELS 6 Xposition Yposition Zposition Zrotation Xrotation Yrotation 
			JOINT Chest
			{
				OFFSET 8.98455 -0.406207 0.0
				CHANNELS 6 Xposition Yposition Zposition Zrotation Xrotation Yrotation 
				JOINT Neck
				{
					OFFSET 16.3773 0.0 0.0
					CHANNELS 6 Xposition Yposition Zposition Zrotation Xrotation Yrotation 
					JOINT Head
					{
						OFFSET 6.45672 0.0 0.0
						CHANNELS 6 Xposition Yposition Zposition Zrotation Xrotation Yrotation 
						End Site
						{
							OFFSET 0.0 0.0 0.0
						}
					}
				}
				JOINT Shoulder_L
				{
					OFFSET 12.9942 -0.242716 4.98039
					CHANNELS 6 Xposition Yposition Zposition Zrotation Xrotation Yrotation 
					JOINT UpperArm_L
					{
						OFFSET 5.34809 0.0 0.0
						CHANNELS 6 Xposition Yposition Zposition Zrotation Xrotation Yrotation 
						JOINT LowerArm_L
						{
							OFFSET 24.3286 1.87007e-05 0.0
							CHANNELS 6 Xposition Yposition Zposition Zrotation Xrotation Yrotation 
							JOINT Hand_L
							{
								OFFSET 22.2916 0.0 0.0
								CHANNELS 6 Xposition Yposition Zposition Zrotation Xrotation Yrotation 
								End Site
								{
									OFFSET 0.0 0.0 0.0
								}
							}
						}
					}
				}
				JOINT Shoulder_R
				{
					OFFSET 12.9945 -0.242716 -4.98039
					CHANNELS 6 Xposition Yposition Zposition Zrotation Xrotation Yrotation 
					JOINT UpperArm_R
					{
						OFFSET -5.34813 0.0 0.0
						CHANNELS 6 Xposition Yposition Zposition Zrotation Xrotation Yrotation 
						JOINT LowerArm_R
						{
							OFFSET -24.3289 0.000322201 0.0
							CHANNELS 6 Xposition Yposition Zposition Zrotation Xrotation Yrotation 
							JOINT Hand_R
							{
								OFFSET -22.2915 -0.000108084 0.0
								CHANNELS 6 Xposition Yposition Zposition Zrotation Xrotation Yrotation 
								End Site
								{
									OFFSET 0.0 0.0 0.0
								}
							}
						}
					}
				}
			}
		}
		JOINT UpperLeg_L
		{
			OFFSET -2.19248 -6.46944 0.0
			CHANNELS 6 Xposition Yposition Zposition Zrotation Xrotation Yrotation 
			JOINT LowerLeg_L
			{
				OFFSET 39.0811 0.0 -1.23785e-05
				CHANNELS 6 Xposition Yposition Zposition Zrotation Xrotation Yrotation 
				JOINT Foot_L
				{
					OFFSET 40.9854 0.0 -1.26872e-05
					CHANNELS 6 Xposition Yposition Zposition Zrotation Xrotation Yrotation 
					JOINT Toes_L
					{
						OFFSET 11.7543 0.0 0.0
						CHANNELS 6 Xposition Yposition Zposition Zrotation Xrotation Yrotation 
						End Site
						{
							OFFSET 0.0 0.0 0.0
						}
					}
				}
			}
		}
		JOINT UpperLeg_R
		{
			OFFSET -2.19251 6.46944 0.0
			CHANNELS 6 Xposition Yposition Zposition Zrotation Xrotation Yrotation 
			JOINT LowerLeg_R
			{
				OFFSET -39.0811 -0.00228153 -0.0401928
				CHANNELS 6 Xposition Yposition Zposition Zrotation Xrotation Yrotation 
				JOINT Foot_R
				{
					OFFSET -40.9854 0.0 0.0
					CHANNELS 6 Xposition Yposition Zposition Zrotation Xrotation Yrotation 
					JOINT Toes_R
					{
						OFFSET -11.7543 0.0 0.0
						CHANNELS 6 Xposition Yposition Zposition Zrotation Xrotation Yrotation 
						End Site
						{
							OFFSET 0.0 0.0 0.0
						}
					}
				}
			}
		}
	}
}
MOTION
Frames:	7
Frame Time:	0.0333333
0.000000 0.000000 0.000000 0.000000 0.000000 -0.000000 6.563690 90.725600 2.036430 86.393700 -32.011700 3.944640 15.735700 0.000005 -0.000001 67.530400 84.745600 -64.991200 8.984550 -0.406207 -0.000000 2.046910 -4.140350 5.149380 16.377300 -0.000001 -0.000001 12.215700 1.142910 -3.234560 6.456720 -0.000001 -0.000000 7.142190 3.023260 0.431704 12.994200 -0.242716 4.980390 -86.204600 -8.650240 -66.198600 5.348090 -0.000007 -0.000001 -37.201000 -56.030000 -77.883600 24.328600 0.000019 0.000005 29.660900 22.488800 -56.112300 22.291600 -0.000001 0.000005 22.185900 5.279980 0.626944 12.994500 -0.242716 -4.980390 87.733800 9.495510 -76.510900 -5.348130 -0.000001 -0.000004 -58.830100 30.689100 -9.979040 -24.328900 0.000322 -0.000009 0.809318 1.570180 -27.303400 -22.291500 -0.000108 -0.000004 15.569400 5.410120 -3.269100 -2.192480 -6.469440 -0.000000 -176.920000 -28.107200 -0.427825 39.081100 -0.000007 -0.000012 -0.185389 0.336560 28.847800 40.985400 -0.000006 -0.000013 0.139558 -9.095490 -73.779000 11.754300 -0.000000 0.000003 -0.000296 -0.002571 -16.673400 -2.192510 6.469440 -0.000001 174.897000 7.243510 172.628000 -39.081100 -0.002282 -0.040193 -0.025726 0.054389 28.092800 -40.985400 0.000008 0.000006 4.197640 28.328300 -67.863900 -11.754300 -0.000006 -0.000006 -0.001267 -0.019129 -17.351000
0.000000 0.000000 0.000000 0.000000 0.000000 -0.000000 6.477520 90.781000 1.972630 86.562400 -31.130100 3.985170 15.735700 0.000005 -0.000001 67.043000 84.732100 -64.601400 8.984550 -0.406207 -0.000000 2.035550 -4.228740 4.955570 16.377300 -0.000001 -0.000001 12.054100 0.970440 -3.194660 6.456720 -0.000001 -0.000000 7.046270 2.868870 0.542632 12.994200 -0.242716 4.980390 -86.378300 -8.293880 -66.308900 5.348090 -0.000007 -0.000001 -38.118100 -55.173800 -78.104500 24.328600 0.000019 0.000005 29.268100 20.972400 -57.436600 22.291600 -0.000001 0.000005 21.755200 5.276920 0.710695 12.994500 -0.242716 -4.980390 87.690100 9.614850 -76.422800 -5.348130 -0.000001 -0.000004 -58.846200 30.480700 -9.923660 -24.328900 0.000322 -0.000009 0.702733 1.362270 -27.326200 -22.291500 -0.000108 -0.000004 15.655200 5.411180 -3.304190 -2.192480 -6.469440 -0.000000 -176.964000 -27.886200 -0.416450 39.081100 -0.000007 -0.000012 -0.172875 0.317122 28.596700 40.985400 -0.000006 -0.000013 0.321686 -8.400590 -73.545300 11.754300 -0.000000 0.000003 -0.000289 -0.002521 -16.671600 -2.192510 6.469440 -0.000001 174.792000 7.929880 172.854000 -39.081100 -0.002282 -0.040193 -0.023994 0.051649 27.860100 -40.985400 0.000008 0.000006 4.311340 28.088700 -67.954600 -11.754300 -0.000006 -0.000006 -0.000986 -0.015215 -17.191900
0.000000 0.000000 0.000000 0.000000 0.000000 -0.000000 6.362510 90.820300 1.896760 86.772500 -30.090800 4.052360 15.735700 0.000005 -0.000001 67.153100 84.724800 -64.821000 8.984550 -0.406207 -0.000000 2.052050 -4.209940 4.736930 16.377300 -0.000001 -0.000001 11.748300 0.817440 -3.138150 6.456720 -0.000001 -0.000000 6.934740 2.676270 0.696602 12.994200 -0.242716 4.980390 -86.654900 -7.728450 -66.508400 5.348090 -0.000007 -0.000001 -39.446200 -53.746900 -77.743200 24.328600 0.000019 0.000005 29.267300 18.518800 -60.458900 22.291600 -0.000001 0.000005 21.371400 5.269350 0.915743 12.994500 -0.242716 -4.980390 87.632100 9.806580 -76.353900 -5.348130 -0.000001 -0.000004 -58.929000 30.280400 -9.602000 -24.328900 0.000322 -0.000009 0.623881 1.209460 -27.328900 -22.291500 -0.000108 -0.000004 15.718700 5.410280 -3.274430 -2.192480 -6.469440 -0.000000 -177.006000 -27.582400 -0.453224 39.081100 -0.000007 -0.000012 -0.170612 0.314919 28.447500 40.985400 -0.000006 -0.000013 0.482904 -7.654400 -73.346400 11.754300 -0.000000 0.000003 -0.000298 -0.002588 -16.674000 -2.192510 6.469440 -0.000001 174.645000 8.666260 173.114000 -39.081100 -0.002282 -0.040193 -0.022569 0.049341 27.673400 -40.985400 0.000008 0.000006 4.350300 27.758100 -68.123400 -11.754300 -0.000006 -0.000006 -0.001228 -0.018593 -17.329200
0.000000 0.000000 0.000000 0.000000 0.000000 -0.000000 6.207640 90.865900 1.792310 86.922100 -28.867600 4.089650 15.735700 0.000005 -0.000001 67.600400 84.725200 -65.365100 8.984550 -0.406207 -0.000000 2.077280 -4.128300 4.542770 16.377300 -0.000001 -0.000001 11.391100 0.643409 -2.980500 6.456720 -0.000001 -0.000000 6.759240 2.527270 0.807561 12.994200 -0.242716 4.980390 -87.009400 -6.963150 -66.687200 5.348090 -0.000007 -0.000001 -40.884300 -51.415600 -76.316000 24.328600 0.000019 0.000005 29.116900 14.976800 -65.111900 22.291600 -0.000001 0.000005 21.270200 5.260460 1.154610 12.994500 -0.242716 -4.980390 87.562100 10.015600 -76.244400 -5.348130 -0.000001 -0.000004 -59.145900 30.144200 -9.164870 -24.328900 0.000322 -0.000009 0.571479 1.121080 -27.055900 -22.291500 -0.000108 -0.000004 15.649600 5.409750 -3.256890 -2.192480 -6.469440 -0.000000 -176.967000 -27.177600 -0.549717 39.081100 -0.000007 -0.000012 -0.165152 0.306030 28.354100 40.985400 -0.000006 -0.000013 0.649066 -6.789870 -73.133000 11.754300 -0.000000 0.000003 -0.000300 -0.002604 -16.674600 -2.192510 6.469440 -0.000001 174.548000 9.522100 173.355000 -39.081100 -0.002282 -0.040193 -0.033599 0.070889 27.502400 -40.985400 0.000008 0.000006 4.139090 27.440700 -68.021900 -11.754300 -0.000006 -0.000006 -0.001081 -0.016553 -17.246300
0.000000 0.000000 0.000000 0.000000 0.000000 -0.000000 6.022040 90.899000 1.694150 87.119600 -27.454500 4.236610 15.735700 0.000005 -0.000001 68.371000 84.695900 -66.240600 8.984550 -0.406207 -0.000000 2.178570 -4.011240 4.334470 16.377300 -0.000001 -0.000001 10.975700 0.491045 -2.775430 6.456720 -0.000001 -0.000000 6.603600 2.373580 0.882946 12.994200 -0.242716 4.980390 -87.481700 -5.961940 -67.050600 5.348090 -0.000007 -0.000001 -41.295100 -48.239800 -72.890300 24.328600 0.000019 0.000005 27.827000 10.580300 -70.822300 22.291600 -0.000001 0.000005 21.804000 5.264400 1.047990 12.994500 -0.242716 -4.980390 87.507300 10.211800 -76.203800 -5.348130 -0.000001 -0.000004 -59.424000 30.238100 -8.635770 -24.328900 0.000322 -0.000009 0.534764 1.071760 -26.564700 -22.291500 -0.000108 -0.000004 15.564500 5.408560 -3.217720 -2.192480 -6.469440 -0.000000 -176.899000 -26.727700 -0.553955 39.081100 -0.000007 -0.000012 -0.163452 0.303587 28.298400 40.985400 -0.000006 -0.000013 0.818603 -5.826470 -72.947500 11.754300 -0.000000 0.000003 -0.000305 -0.002635 -16.675700 -2.192510 6.469440 -0.000001 174.345000 10.542600 173.711000 -39.081100 -0.002282 -0.040193 -0.057367 0.117302 27.350200 -40.985400 0.000008 0.000006 3.514370 27.187800 -67.740800 -11.754300 -0.000006 -0.000006 -0.000865 -0.013469 -17.121000
0.000000 0.000000 0.000000 0.000000 0.000000 -0.000000 5.794200 90.925900 1.581320 87.243300 -25.893200 4.379740 15.735700 0.000005 -0.000001 69.337400 84.665100 -67.303900 8.984550 -0.406207 -0.000000 2.294110 -3.859280 4.141600 16.377300 -0.000001 -0.000001 10.557400 0.325223 -2.455290 6.456720 -0.000001 -0.000000 6.401930 2.234190 0.913966 12.994200 -0.242716 4.980390 -87.982400 -4.886420 -67.531500 5.348090 -0.000007 -0.000001 -40.982400 -43.834400 -67.693500 24.328600 0.000019 0.000005 27.060900 6.512370 -77.484600 22.291600 -0.000001 0.000005 23.244900 5.273590 0.802226 12.994500 -0.242716 -4.980390 87.458300 10.425600 -76.217100 -5.348130 -0.000001 -0.000004 -59.870500 30.393100 -8.032250 -24.328900 0.000322 -0.000009 0.577314 1.196980 -25.792800 -22.291500 -0.000108 -0.000004 15.406100 5.404450 -3.082250 -2.192480 -6.469440 -0.000000 -176.751000 -26.116400 -0.604544 39.081100 -0.000007 -0.000012 -0.159738 0.296065 28.348600 40.985400 -0.000006 -0.000013 0.966955 -4.840590 -72.792800 11.754300 -0.000000 0.000003 -0.000288 -0.002517 -16.671400 -2.192510 6.469440 -0.000001 174.263000 11.562700 174.093000 -39.081100 -0.002282 -0.040193 -0.072286 0.146517 27.291100 -40.985400 0.000008 0.000006 3.265130 26.705600 -67.698700 -11.754300 -0.000006 -0.000006 -0.000698 -0.011016 -17.021300
0.000000 0.000000 0.000000 0.000000 0.000000 -0.000000 5.526490 90.943600 1.475430 87.402000 -24.145800 4.620470 15.735700 0.000005 -0.000001 70.421700 84.589900 -68.504700 8.984550 -0.406207 -0.000000 2.498420 -3.710960 3.912140 16.377300 -0.000001 -0.000001 10.050600 0.135901 -1.997740 6.456720 -0.000001 -0.000000 6.162190 2.117800 0.831454 12.994200 -0.242716 4.980390 -88.560000 -3.614260 -68.261000 5.348090 -0.000007 -0.000001 -39.348700 -38.223200 -60.745000 24.328600 0.000019 0.000005 26.343100 3.032410 -83.904100 22.291600 -0.000001 0.000005 25.229200 5.292950 0.272497 12.994500 -0.242716 -4.980390 87.409100 10.625200 -76.211300 -5.348130 -0.000001 -0.000004 -60.397400 30.688100 -7.594980 -24.328900 0.000322 -0.000009 0.569703 1.245190 -24.627800 -22.291500 -0.000108 -0.000004 15.301800 5.404140 -3.072510 -2.192480 -6.469440 -0.000000 -176.610000 -25.275500 -0.619467 39.081100 -0.000007 -0.000012 -0.157191 0.290131 28.448800 40.985400 -0.000006 -0.000013 1.077970 -3.897540 -72.645700 11.754300 -0.000000 0.000003 -0.000297 -0.002582 -16.673800 -2.192510 6.469440 -0.000001 174.132000 12.554700 174.585000 -39.081100 -0.002282 -0.040193 -0.090117 0.181114 27.286300 -40.985400 0.000008 0.000006 2.983690 26.078400 -67.718800 -11.754300 -0.000006 -0.000006 -0.000655 -0.010379 -16.995400
